<mxfile host="Electron" agent="Mozilla/5.0 (Windows NT 10.0; Win64; x64) AppleWebKit/537.36 (KHTML, like Gecko) draw.io/26.0.9 Chrome/128.0.6613.186 Electron/32.2.5 Safari/537.36" version="26.0.9">
  <diagram name="Page-1" id="ZtRXckprSfWWWMWI-0DX">
    <mxGraphModel dx="989" dy="610" grid="1" gridSize="10" guides="1" tooltips="1" connect="1" arrows="1" fold="1" page="1" pageScale="1" pageWidth="850" pageHeight="1100" math="0" shadow="0">
      <root>
        <mxCell id="0" />
        <mxCell id="1" parent="0" />
        <mxCell id="u3RBaRpEE6LbFSr3Mo1L-11" style="edgeStyle=orthogonalEdgeStyle;rounded=0;orthogonalLoop=1;jettySize=auto;html=1;exitX=0.225;exitY=0.96;exitDx=0;exitDy=0;exitPerimeter=0;" edge="1" parent="1" source="u3RBaRpEE6LbFSr3Mo1L-6" target="u3RBaRpEE6LbFSr3Mo1L-7">
          <mxGeometry relative="1" as="geometry" />
        </mxCell>
        <mxCell id="u3RBaRpEE6LbFSr3Mo1L-12" style="edgeStyle=orthogonalEdgeStyle;rounded=0;orthogonalLoop=1;jettySize=auto;html=1;exitX=0.775;exitY=0.998;exitDx=0;exitDy=0;exitPerimeter=0;" edge="1" parent="1" source="u3RBaRpEE6LbFSr3Mo1L-6" target="u3RBaRpEE6LbFSr3Mo1L-8">
          <mxGeometry relative="1" as="geometry" />
        </mxCell>
        <mxCell id="u3RBaRpEE6LbFSr3Mo1L-6" value="Vizzy (React + Next.js)" style="rounded=1;whiteSpace=wrap;html=1;fillColor=light-dark(#cae8a8, #ededed);" vertex="1" parent="1">
          <mxGeometry x="220" y="170" width="400" height="40" as="geometry" />
        </mxCell>
        <mxCell id="u3RBaRpEE6LbFSr3Mo1L-13" style="edgeStyle=orthogonalEdgeStyle;rounded=0;orthogonalLoop=1;jettySize=auto;html=1;entryX=0.5;entryY=0;entryDx=0;entryDy=0;" edge="1" parent="1" source="u3RBaRpEE6LbFSr3Mo1L-7" target="u3RBaRpEE6LbFSr3Mo1L-10">
          <mxGeometry relative="1" as="geometry" />
        </mxCell>
        <mxCell id="u3RBaRpEE6LbFSr3Mo1L-7" value="C# Backend API" style="rounded=1;whiteSpace=wrap;html=1;fillColor=light-dark(#fbdda6, #FEDBA7);fontColor=#000000;fillStyle=solid;" vertex="1" parent="1">
          <mxGeometry x="220" y="240" width="180" height="60" as="geometry" />
        </mxCell>
        <mxCell id="u3RBaRpEE6LbFSr3Mo1L-38" style="edgeStyle=orthogonalEdgeStyle;rounded=0;orthogonalLoop=1;jettySize=auto;html=1;" edge="1" parent="1" source="u3RBaRpEE6LbFSr3Mo1L-8" target="u3RBaRpEE6LbFSr3Mo1L-37">
          <mxGeometry relative="1" as="geometry" />
        </mxCell>
        <mxCell id="u3RBaRpEE6LbFSr3Mo1L-8" value="Supabase Auth" style="rounded=1;whiteSpace=wrap;html=1;fillColor=light-dark(#fa8e7f, #ededed);glass=0;shadow=0;" vertex="1" parent="1">
          <mxGeometry x="440" y="240" width="180" height="60" as="geometry" />
        </mxCell>
        <mxCell id="u3RBaRpEE6LbFSr3Mo1L-10" value="Supabase Storage (CDN)" style="rounded=1;whiteSpace=wrap;html=1;fillColor=light-dark(#fa8e7f, #ededed);" vertex="1" parent="1">
          <mxGeometry x="250" y="330" width="120" height="60" as="geometry" />
        </mxCell>
        <mxCell id="u3RBaRpEE6LbFSr3Mo1L-19" value="Supabase Database (PostgreSQL)" style="shape=cylinder3;whiteSpace=wrap;html=1;boundedLbl=1;backgroundOutline=1;size=15;fillColor=light-dark(#c1e5f2, #ededed);" vertex="1" parent="1">
          <mxGeometry x="90" y="222.5" width="80" height="95" as="geometry" />
        </mxCell>
        <mxCell id="u3RBaRpEE6LbFSr3Mo1L-22" style="edgeStyle=orthogonalEdgeStyle;rounded=0;orthogonalLoop=1;jettySize=auto;html=1;entryX=1;entryY=0.5;entryDx=0;entryDy=0;entryPerimeter=0;" edge="1" parent="1" source="u3RBaRpEE6LbFSr3Mo1L-7" target="u3RBaRpEE6LbFSr3Mo1L-19">
          <mxGeometry relative="1" as="geometry" />
        </mxCell>
        <mxCell id="u3RBaRpEE6LbFSr3Mo1L-27" value="Frontend" style="text;html=1;align=center;verticalAlign=middle;whiteSpace=wrap;rounded=0;" vertex="1" parent="1">
          <mxGeometry x="660" y="175" width="60" height="30" as="geometry" />
        </mxCell>
        <mxCell id="u3RBaRpEE6LbFSr3Mo1L-29" value="Backend" style="text;html=1;align=center;verticalAlign=middle;whiteSpace=wrap;rounded=0;" vertex="1" parent="1">
          <mxGeometry x="660" y="295" width="60" height="30" as="geometry" />
        </mxCell>
        <mxCell id="u3RBaRpEE6LbFSr3Mo1L-30" value="" style="shape=curlyBracket;whiteSpace=wrap;html=1;rounded=1;flipH=1;labelPosition=right;verticalLabelPosition=middle;align=left;verticalAlign=middle;" vertex="1" parent="1">
          <mxGeometry x="640" y="170" width="20" height="40" as="geometry" />
        </mxCell>
        <mxCell id="u3RBaRpEE6LbFSr3Mo1L-31" value="" style="shape=curlyBracket;whiteSpace=wrap;html=1;rounded=1;flipH=1;labelPosition=right;verticalLabelPosition=middle;align=left;verticalAlign=middle;" vertex="1" parent="1">
          <mxGeometry x="640" y="240" width="20" height="140" as="geometry" />
        </mxCell>
        <mxCell id="u3RBaRpEE6LbFSr3Mo1L-37" value="SMTP/Email" style="rounded=1;whiteSpace=wrap;html=1;fillColor=light-dark(#9bb1f3, #ededed);" vertex="1" parent="1">
          <mxGeometry x="470" y="330" width="120" height="60" as="geometry" />
        </mxCell>
      </root>
    </mxGraphModel>
  </diagram>
</mxfile>
